<svg width="112" height="60" viewBox="0 0 112 60" fill="none" xmlns="http://www.w3.org/2000/svg">
<g clip-path="url(#clip0_62_2)">
<path fill-rule="evenodd" clip-rule="evenodd" d="M0.134507 25.9908V26.3046L1.57043 23.3918C1.96518 22.4378 2.82604 20.9871 3.35172 20.0209C3.55736 19.6429 3.77248 19.2845 3.97935 18.9457C4.86656 17.4934 5.79157 16.0977 6.76279 14.8727C7.16369 14.3669 8.27887 13.0037 8.73372 12.5416C8.89577 12.377 9.01194 12.2683 9.15905 12.1165L11.8434 9.64729C12.6127 9.06993 12.9044 8.79504 13.7988 8.19589C20.2071 3.90305 27.7303 2.50052 35.6722 2.64394C36.3241 2.64517 36.8139 2.68647 37.4663 2.68735C37.7714 2.68787 37.9625 2.73498 38.3173 2.73269C38.5161 2.73129 38.6035 2.74869 38.7319 2.76609L42.5736 3.09211C42.5286 3.05292 42.5683 3.08315 42.4968 3.03464C41.4359 2.31457 37.2538 1.04983 35.9151 0.788128C32.5986 0.139764 31.3855 0.000213623 27.7402 0.000213623C24.9736 0.000213623 22.5002 0.457179 19.9426 1.16565C17.1688 1.93371 14.6251 3.17595 12.2703 4.74141L10.0519 6.42181C9.9902 6.47419 9.9728 6.50143 9.91445 6.55328C9.02601 7.34453 8.62001 7.74859 7.7632 8.61437C6.95173 9.43462 5.75343 11.043 5.05515 12.0905L4.18147 13.5025C4.03699 13.761 3.91713 13.9486 3.77986 14.2213C2.88579 15.997 2.38963 16.9144 1.73072 18.894C1.34441 20.0547 1.03385 21.1187 0.744205 22.3887C0.670563 22.7118 0.608521 23.0174 0.548764 23.3135C0.478637 23.6605 0.425559 23.9115 0.349105 24.2342C0.269312 24.5699 -0.00012207 25.8697 -0.00012207 26.1705C0.00690817 26.1626 0.016399 26.1381 0.0190353 26.145L0.134331 25.9912L0.134507 25.9908Z" fill="#DBAE22"/>
<path fill-rule="evenodd" clip-rule="evenodd" d="M0.672119 35.1322C0.672119 37.5753 0.784603 39.04 1.28059 41.2906C1.79907 43.6439 2.40999 45.2212 3.39071 47.2018C3.48914 47.4004 3.5612 47.5005 3.65962 47.6946L5.38361 50.3622C5.70278 50.7861 6.33814 51.5619 6.73412 51.9695C6.86752 52.1069 6.92288 52.2068 7.06911 52.3514C7.20796 52.4887 7.31236 52.5943 7.45033 52.7323L8.56989 53.7636C8.71419 53.8923 8.82632 53.9923 8.97659 54.1186C9.25745 54.3552 9.51652 54.548 9.80774 54.7665C10.0928 54.9802 10.3723 55.1934 10.6654 55.3874C11.6391 56.0323 12.4031 56.5024 13.4292 57.0155C16.3775 58.4895 20.5677 59.7339 23.9754 59.7339L21.7947 58.6435C20.8308 58.1617 19.4952 57.5113 18.5892 56.9641C17.1166 56.075 16.0469 55.4909 14.6029 54.4079C13.9735 53.9359 13.3708 53.4814 12.7824 52.9569C11.8794 52.1525 11.3249 51.7004 10.4972 50.7608L8.80277 48.7359C5.02823 43.7005 3.13692 36.9664 3.13692 28.1867C3.13692 27.3985 3.18209 26.748 3.18174 25.991C3.18121 25.25 3.27138 24.5811 3.27138 23.8399C3.22093 23.8979 3.25046 23.8547 3.19703 23.9448C2.51352 25.0969 1.72753 27.7559 1.44334 28.9578C1.2254 29.8798 1.02381 30.8805 0.904293 31.8693C0.779682 32.9016 0.672119 34.0011 0.672119 35.1324V35.1322Z" fill="#DBAE22"/>
<path fill-rule="evenodd" clip-rule="evenodd" d="M24.6481 50.1443L24.8624 50.1989C25.4584 50.2972 26.0266 50.2808 26.6171 50.3262C27.2426 50.3743 27.9759 50.458 28.6365 50.458L28.7327 48.8066C28.7531 48.6245 28.7735 48.5117 28.7706 48.2619L29.084 41.5848C29.0819 41.1979 29.1315 40.9004 29.129 40.4649C29.1241 39.54 29.2162 38.5704 29.2174 37.6405C29.2178 37.3812 29.2584 37.3352 29.2652 37.1058C29.2765 36.7255 29.2433 36.3154 29.2635 35.939L29.3085 34.8191C29.3083 34.0506 29.355 33.3464 29.3533 32.5335C29.3522 32.1043 29.3986 31.8497 29.3981 31.4133C29.3977 31.0248 29.3985 30.6364 29.3981 30.248C29.3979 29.809 29.4447 29.5455 29.4431 29.1279L29.4877 23.3471C29.4877 22.5694 29.4847 21.7911 29.4846 21.0138C29.4846 20.5552 29.8243 20.5215 30.2834 20.0649C30.7746 19.5766 31.3233 19.1708 31.829 18.6975C31.9501 18.5841 32.0181 18.5565 32.1432 18.4293L33.073 17.6111C33.073 19.913 33.1329 22.068 33.1609 24.3347C33.1644 24.6131 33.2083 24.8032 33.2074 25.1396C33.2069 25.4226 33.2022 25.7107 33.2057 25.9928C33.209 26.2712 33.253 26.4613 33.2523 26.7977C33.2515 27.0575 33.2338 27.396 33.2545 27.6468C33.322 28.4621 33.3159 29.3008 33.3403 30.1153C33.3733 31.2197 33.4607 32.3337 33.4744 33.4316C33.4839 34.1946 33.6041 35.1022 33.6124 35.8478C33.614 35.979 33.6034 36.1235 33.6104 36.2532C33.621 36.4502 33.6507 36.4404 33.6568 36.6548L34.056 43.0671C34.0797 43.3745 34.1036 43.6181 34.1036 43.9158L34.1333 43.8561C34.2395 43.5868 34.4105 40.4218 34.4161 40.1953L34.553 38.3159C34.5713 37.6951 34.6478 37.0095 34.6411 36.3872C34.6372 36.0348 34.685 35.8277 34.6847 35.4449C34.6845 35.2149 34.714 35.1713 34.7286 34.996L34.8639 31.0983C34.8706 30.8728 34.9089 30.8501 34.9121 30.6086C34.9205 29.9181 34.9327 29.3335 34.9536 28.6337L35.0436 25.7212C35.0422 25.3795 35.0896 25.1275 35.0894 24.7365C35.0886 23.4141 35.1791 22.0941 35.1791 20.793C35.1789 18.1098 35.2685 15.4715 35.2685 12.7719C35.077 12.9 34.9487 13.0422 34.7757 13.1751L34.0247 13.8132C33.3881 14.4089 32.6693 14.9451 32.0307 15.5388L31.2611 16.2033C30.3924 16.8784 29.6236 17.6802 28.7638 18.3665L27.5268 19.4599C27.3913 19.5961 27.4166 19.5829 27.2467 19.6729V25.4535C27.2467 26.1478 27.2917 26.6828 27.2917 27.3804C27.2917 28.7045 27.3367 29.8819 27.3365 31.1895C27.3363 32.4407 27.4265 33.7299 27.4261 34.9985C27.4259 35.643 27.4743 36.1961 27.4704 36.8812L27.5483 38.7302C27.5864 39.0077 27.5586 39.3713 27.559 39.6604C27.5595 39.9773 27.6064 40.2251 27.6052 40.6L27.9068 47.0652C27.9423 47.3241 27.9416 47.7572 27.9615 47.9962C27.9745 48.153 27.9578 48.3298 27.9623 48.4883C27.9689 48.7101 28.0042 48.712 28.01 48.9335C28.0198 49.3045 28.0536 49.5168 28.0536 49.8757C27.6899 49.9604 27.1917 49.9546 26.7976 49.9641C26.167 49.9796 25.248 50.1311 24.6478 50.1446L24.6481 50.1443Z" fill="#DBAE22"/>
<path fill-rule="evenodd" clip-rule="evenodd" d="M15.1473 23.5932C15.2102 23.7021 15.2387 26.5492 15.1921 26.8422C15.193 27.3225 15.2376 27.6287 15.2371 28.0971L15.2821 30.0237C15.3121 30.5823 15.2304 31.5182 15.2884 32.034C15.3313 32.4168 15.3265 32.8471 15.3265 33.2953L15.3712 35.2672C15.3696 35.552 15.4044 35.6717 15.4163 35.8942C15.4399 36.3292 15.3924 36.804 15.416 37.239L15.4605 38.4941C15.4587 38.782 15.5002 38.8811 15.5072 39.1195C15.5137 39.3381 15.5056 39.5736 15.5049 39.7942C15.5037 40.0687 15.5452 40.1408 15.5522 40.3742C15.5587 40.5919 15.5515 40.8285 15.5503 41.0482C15.5475 41.6264 15.6267 42.4237 15.6418 42.9284C15.6483 43.1476 15.6283 43.3849 15.6401 43.6023C15.652 43.825 15.687 43.9443 15.6852 44.2292L15.8244 47.2672C15.848 47.3828 15.7983 47.3619 15.8643 47.3213L15.8645 47.1868L15.9095 47.0972V47.0077L16.2658 36.7439C16.2691 36.4808 16.3148 36.3759 16.313 36.0741C16.3104 35.6026 16.3053 35.1273 16.3507 34.7227C16.399 34.2921 16.3329 33.7417 16.357 33.2949L16.4009 31.2328C16.3997 30.9357 16.4479 30.8464 16.4484 30.5631C16.4491 30.0998 16.447 29.636 16.4468 29.1724C16.4464 28.6628 16.4916 28.3084 16.4916 27.7834C16.4916 27.3053 16.4927 26.8273 16.4916 26.3494C16.4904 25.8569 16.5364 25.4699 16.5364 24.9403C16.4844 24.8326 16.5199 21.8154 16.5733 21.5994L16.5816 16.3564C16.7069 16.4406 16.8111 16.5311 16.93 16.6353C17.0528 16.7429 17.1779 16.8324 17.3043 16.9331L23.8324 22.146C23.9591 22.3307 23.8843 23.096 23.8846 23.3933C23.8851 23.6705 23.9322 23.7406 23.9326 24.0178L23.9758 29.8896C23.9758 30.7408 24.0228 31.5449 24.0207 32.4439C24.0196 32.9023 24.0656 33.2165 24.0656 33.6986C24.0656 34.131 24.0586 34.5686 24.0639 35.0001C24.0669 35.2544 24.1117 35.3101 24.112 35.5792L24.1091 36.8817C24.1161 37.1201 24.1576 37.219 24.156 37.5069C24.1507 38.4215 24.1973 39.1871 24.1985 40.1081C24.199 40.3773 24.2435 40.4331 24.2468 40.6874C24.2495 40.9099 24.2456 41.1382 24.2449 41.3614C24.2432 41.8073 24.291 42.1349 24.2899 42.6161C24.2874 43.716 24.4212 45.2837 24.423 46.4265C24.4233 46.6958 24.4679 46.7515 24.4711 47.0058C24.4736 47.215 24.4532 47.4707 24.4759 47.6733L24.6486 50.1445L24.8703 45.7954C24.8947 45.4999 24.8464 45.1551 24.8792 44.8632C24.9564 44.1751 25.0497 39.9858 25.0502 39.5225C25.0508 39.2196 25.0975 39.0244 25.0966 38.6727L25.2759 30.5617C25.2757 29.9578 25.2564 29.3226 25.2743 28.723L25.3205 26.9318C25.3205 26.3195 25.3234 25.7066 25.3202 25.0943C25.3183 24.7417 25.368 24.5855 25.3659 24.2438L25.3652 21.4648L22.8009 19.4135C21.7856 18.5258 19.4617 16.7114 18.3353 15.8126L15.442 13.5076C15.2921 13.3895 15.2671 13.351 15.103 13.2642C15.103 14.9818 15.103 16.6997 15.103 18.4173C15.103 20.1594 15.1478 21.8179 15.1478 23.593L15.1473 23.5932Z" fill="#222222"/>
<path fill-rule="evenodd" clip-rule="evenodd" d="M1.57043 23.3918C1.68485 23.3056 2.20896 22.356 2.30457 22.2008C3.25172 20.6614 3.94402 19.6274 4.99346 18.1678L7.6066 14.9551C8.11401 14.4279 9.04112 13.3965 9.52673 13.0216C9.72692 12.867 9.84204 12.6975 10.0385 12.5474L10.5415 12.1095C12.1643 10.6957 14.4317 9.1557 16.3571 8.20046C17.5901 7.58883 18.4864 7.25402 19.7503 6.75364C19.9746 6.66488 20.2134 6.58526 20.4545 6.51672L22.7568 5.86133C23.8869 5.57625 26.4246 5.10276 27.6939 5.01734C27.978 4.99836 28.2959 4.93316 28.5915 4.92912C28.8158 4.92613 29.2792 4.90099 29.5141 4.86567L31.3704 4.79484C34.1266 4.79484 36.9513 4.8502 39.6358 5.22351C39.9582 5.26832 40.1998 5.30189 40.5088 5.33634C41.0521 5.39698 41.6344 5.48925 42.1898 5.5824L43.8735 5.87029C43.6164 5.48626 40.6672 4.24349 40.0454 4.00727C38.7008 3.49582 37.3443 3.07893 35.9404 2.73463L35.6724 2.64376C27.7303 2.50034 20.2073 3.90288 13.799 8.19572C12.9046 8.79487 12.6128 9.06993 11.8435 9.64711L9.15923 12.1163C9.01212 12.2682 8.89577 12.3768 8.7339 12.5415C8.27904 13.0035 7.16387 14.3667 6.76297 14.8725C5.79174 16.0975 4.86674 17.4932 3.97952 18.9455C3.77266 19.2843 3.55771 19.6429 3.3519 20.0208C2.82621 20.9867 1.96536 22.4374 1.57061 23.3916L1.57043 23.3918Z" fill="#222222"/>
<path fill-rule="evenodd" clip-rule="evenodd" d="M15.192 26.8422C15.2386 26.5494 15.2101 23.7023 15.1472 23.5932L14.3046 24.7899C14.1584 25.0043 14.0243 25.173 13.8742 25.3901L11.2838 29.0736C11.0338 29.4446 11.0702 29.3065 11.0688 29.8898C11.0679 30.2693 11.1148 30.4793 11.114 30.8754L11.1588 34.0122C11.1588 34.7575 11.2036 35.3528 11.2036 36.0736C11.2036 36.7902 11.2521 37.3587 11.2479 38.0908L11.2917 39.6154C11.2945 39.8571 11.3328 39.8796 11.3396 40.1053L11.3954 42.1558C11.4818 42.7864 11.4179 43.4907 11.4751 44.1823L12.0214 51.9479L12.4074 46.3291C12.4875 45.6143 12.4476 44.2951 12.5225 43.8004L12.6812 39.4778C12.6817 39.1752 12.7285 38.9799 12.7276 38.628C12.7239 37.0297 12.8624 35.0349 12.862 33.4299C12.8619 32.8585 12.8269 32.1646 12.8947 31.6699C12.9503 31.2644 12.838 30.242 12.9248 29.9524C12.9582 29.8404 13.5593 29.0602 13.6689 28.9042C13.7918 28.7293 13.9099 28.5746 14.0461 28.3852L15.1922 26.8425L15.192 26.8422Z" fill="#DBAE22"/>
<path fill-rule="evenodd" clip-rule="evenodd" d="M16.5733 21.5992C16.5201 21.8152 16.4846 24.8324 16.5364 24.9402C16.568 24.8934 16.5893 24.8663 16.626 24.8256L16.6383 27.7709C16.7074 28.2751 16.6835 31.2312 16.7582 32.1323C16.7988 32.623 16.732 33.175 16.793 33.6209L16.8498 35.8049C16.848 36.1193 16.8934 36.2524 16.8965 36.5199C16.8995 36.7571 16.8863 37.0041 16.8934 37.2401L16.9848 38.6723C16.9983 38.921 16.9631 39.1771 16.9969 39.4221C17.0649 39.9183 17.0765 41.5437 17.1572 42.2641C17.2528 43.1146 16.8986 43.8853 16.6313 44.7273L16.1046 46.4413C16.0515 46.6032 16.0098 46.8615 15.9093 47.0074V47.0968L15.8643 47.1865L15.8641 47.3209L15.9028 47.2703C15.9497 47.199 15.9184 47.2519 15.9545 47.1874C15.9805 47.1406 15.9991 47.0974 16.0286 47.0374C16.0921 46.9081 16.1311 46.8385 16.1932 46.7091L17.7314 43.4077C17.9001 43.0499 17.8574 43.0845 17.8806 42.6156C17.8904 42.4165 17.9247 42.4012 17.9272 42.1694L18.0272 39.8497C18.0982 39.3319 18.0853 38.5901 18.1033 37.9988C18.1096 37.7846 18.1391 37.7939 18.1497 37.5972C18.1579 37.444 18.15 37.2601 18.1491 37.1037L18.2393 35.2221C18.2565 34.9031 18.2217 34.5547 18.2388 34.2359L18.3738 30.5169C18.405 29.9378 18.3108 29.1479 18.3924 28.6087C18.4822 28.0157 18.4182 27.2856 18.4182 26.6629C18.4182 25.9856 18.4632 25.4651 18.4632 24.7808L18.508 19.0001C18.3683 19.0936 18.3567 19.1397 18.2571 19.2868C18.1692 19.4163 18.0961 19.5009 18.0082 19.6206L16.573 21.5992H16.5733Z" fill="#DBAE22"/>
<path d="M69.6337 23.2172C71.1148 23.2172 72.2882 23.6181 73.1561 24.4176C74.0728 25.2555 74.531 26.3392 74.531 27.667C74.531 28.4794 74.3103 29.2386 73.871 29.945C73.0116 31.3215 71.6029 32.0108 69.6464 32.0108C68.1758 32.0108 67.0088 31.6099 66.1411 30.8102C65.6764 30.3817 65.3244 29.8708 65.0845 29.2727C64.8723 28.7467 64.7662 28.1909 64.7662 27.6099C64.7662 26.7592 64.9846 25.9831 65.4196 25.2769C66.2536 23.928 67.6582 23.2429 69.6336 23.2176L69.6337 23.2172ZM69.6401 24.6553C68.8274 24.6553 68.1526 24.8969 67.6117 25.3783C66.9709 25.9467 66.6503 26.6912 66.6503 27.6138C66.6503 28.5363 66.9707 29.2806 67.6117 29.849C68.1526 30.3306 68.8318 30.5723 69.6529 30.5723C70.4719 30.5723 71.1488 30.3306 71.6855 29.849C72.0059 29.5627 72.2521 29.2128 72.4219 28.7971C72.5726 28.4282 72.6469 28.0465 72.6469 27.6519C72.6469 26.6868 72.3265 25.9297 71.6855 25.3781C71.1403 24.9031 70.4591 24.6633 69.6401 24.6551V24.6553ZM80.8885 24.7697V31.2002C80.8885 31.3296 80.9181 31.4271 80.9754 31.4929C81.0327 31.5586 81.1345 31.6117 81.283 31.654V31.8577H78.6349V31.654C78.7836 31.6117 78.8854 31.5586 78.9427 31.4929C78.9998 31.4271 79.0297 31.3296 79.0297 31.2002V24.7697H76.407C76.2838 24.7697 76.1884 24.7973 76.1226 24.8546C76.0569 24.9098 76.0017 25.0135 75.9613 25.1643H75.7576V22.9754H75.9613C76.006 23.1262 76.0611 23.2279 76.1248 23.2851C76.1905 23.3424 76.2838 23.37 76.407 23.37H83.5044C83.6316 23.37 83.7295 23.3424 83.7953 23.2851C83.861 23.2279 83.9162 23.1262 83.9564 22.9754H84.1601V25.1643H83.9564C83.9162 25.0135 83.861 24.9098 83.7953 24.8546C83.7295 24.7973 83.6318 24.7697 83.5044 24.7697H80.8883H80.8885ZM86.0639 31.2002V24.021C86.0639 23.896 86.0344 23.8004 85.9769 23.7347C85.9198 23.6689 85.8179 23.6139 85.6694 23.5735V23.37H88.3175V23.5735C88.169 23.6116 88.067 23.6626 88.0099 23.7325C87.9526 23.8004 87.9229 23.8958 87.9229 24.0208V31.2001C87.9229 31.3294 87.9524 31.427 88.0118 31.495C88.0714 31.5649 88.1732 31.6159 88.3175 31.6539V31.8576H85.6694V31.6539C85.8179 31.6115 85.9198 31.5584 85.9769 31.4927C86.0342 31.427 86.0639 31.3294 86.0639 31.2001V31.2002ZM92.5804 26.0465V31.2002C92.5804 31.3296 92.6101 31.4271 92.6674 31.4929C92.7247 31.5586 92.8265 31.6117 92.975 31.654V31.8577H90.4926V31.654C90.6411 31.6117 90.7429 31.5586 90.8002 31.4929C90.8573 31.4271 90.8872 31.3296 90.8872 31.2002V24.021C90.8872 23.896 90.8575 23.8004 90.8002 23.7347C90.7429 23.6689 90.6411 23.6139 90.4926 23.5735V23.37H93.3719V23.5735C93.1937 23.6181 93.1067 23.7134 93.1067 23.8598C93.1067 23.9596 93.164 24.0677 93.2785 24.1886L97.9784 29.052V24.021C97.9784 23.896 97.9489 23.8004 97.8914 23.7347C97.8341 23.6689 97.7324 23.6139 97.5839 23.5735V23.37H100.066V23.5735C99.9179 23.6139 99.816 23.6689 99.7588 23.7347C99.7016 23.8004 99.6717 23.896 99.6717 24.021V31.2002C99.6717 31.3296 99.7014 31.4271 99.7588 31.4929C99.816 31.5586 99.9179 31.6117 100.066 31.654V31.8577H97.397V31.654C97.571 31.6161 97.6579 31.5268 97.6579 31.3869C97.6579 31.3041 97.5561 31.16 97.3543 30.9521L92.5803 26.0464L92.5804 26.0465ZM108.563 29.6817H104.735L104.157 30.88C104.079 31.0475 104.039 31.177 104.039 31.2725C104.039 31.457 104.179 31.5841 104.457 31.6542V31.8579H101.649V31.6542C101.815 31.6205 101.942 31.563 102.029 31.4804C102.116 31.3976 102.216 31.2364 102.326 30.9967L105.448 24.4813C105.547 24.2733 105.596 24.1078 105.596 23.9828C105.596 23.792 105.477 23.6561 105.235 23.5735V23.37H108.244V23.5735C107.998 23.6434 107.877 23.7665 107.877 23.9403C107.877 24.0593 107.915 24.1969 107.994 24.3496L111.223 30.8842C111.361 31.1619 111.48 31.3507 111.584 31.4526C111.688 31.5544 111.826 31.6201 112 31.654V31.8577H108.868V31.654C109.142 31.6075 109.278 31.4802 109.278 31.2683C109.278 31.1792 109.235 31.0498 109.152 30.88L108.563 29.6817ZM108.032 28.5238L106.67 25.527L105.282 28.5238H108.032Z" fill="#222222"/>
<path d="M54.4602 48.4394L51.0811 43.0956V47.8403C51.0811 47.9582 51.1131 48.0471 51.1752 48.1071C51.237 48.167 51.3471 48.2153 51.5077 48.254V48.4396H48.8235V48.254C48.9842 48.2155 49.0944 48.167 49.1563 48.1071C49.2181 48.0471 49.2503 47.9582 49.2503 47.8403V41.2983C49.2503 41.1842 49.2181 41.0972 49.1563 41.0375C49.0944 40.9775 48.9842 40.9273 48.8235 40.8905V40.7049H52.3496V40.8905C52.1387 40.935 52.033 41.0392 52.033 41.2016C52.033 41.2772 52.0652 41.3642 52.1272 41.4626L54.6231 45.4439L57.1535 41.5303C57.266 41.3563 57.321 41.2306 57.321 41.1515C57.321 40.9969 57.2087 40.9099 56.986 40.8907V40.7051H60.4547V40.8907C60.2943 40.9274 60.1841 40.9777 60.1222 41.0376C60.0602 41.0976 60.028 41.1846 60.028 41.2985V47.8405C60.028 47.9584 60.0602 48.0473 60.1222 48.1073C60.1841 48.1672 60.2943 48.2155 60.4547 48.2542V48.4398H57.5917V48.2542C57.7477 48.2196 57.8578 48.1732 57.9221 48.1094C57.9864 48.0475 58.0184 47.9586 58.0184 47.8406V43.0959L54.4602 48.4398V48.4394ZM68.0724 40.5657C69.6737 40.5657 70.9423 40.9311 71.8806 41.6596C72.8717 42.4231 73.3672 43.4107 73.3672 44.6206C73.3672 45.3607 73.1287 46.0527 72.6536 46.6963C71.7246 47.9505 70.2013 48.5786 68.0861 48.5786C66.4963 48.5786 65.2344 48.2132 64.2961 47.4846C63.7937 47.0942 63.4127 46.6284 63.1536 46.0834C62.9245 45.6041 62.8097 45.098 62.8097 44.5684C62.8097 43.7933 63.0461 43.0859 63.5162 42.4425C64.4179 41.2132 65.9366 40.5889 68.0724 40.5657ZM68.0792 41.876C67.2006 41.876 66.4712 42.0964 65.8861 42.5351C65.1933 43.0532 64.8469 43.7315 64.8469 44.5721C64.8469 45.4127 65.1933 46.0912 65.8861 46.6093C66.4712 47.048 67.2052 47.2684 68.0931 47.2684C68.9787 47.2684 69.7104 47.048 70.2909 46.6093C70.6373 46.3483 70.9034 46.0295 71.0869 45.6507C71.2498 45.3145 71.3302 44.9665 71.3302 44.6069C71.3302 43.7274 70.9837 43.0378 70.2909 42.5351C69.7014 42.1022 68.9648 41.8837 68.0794 41.876H68.0792ZM69.9398 38.4437V38.5945C69.7654 38.5983 69.6346 38.6505 69.5452 38.753L68.591 39.7348C68.5634 39.7618 68.5497 39.7908 68.5497 39.8256C68.5497 39.8856 68.598 39.9165 68.6921 39.9165C68.6942 39.9165 68.7035 39.9165 68.7174 39.9165V40.0673H67.256V39.9165C67.3637 39.9165 67.4395 39.9028 67.483 39.8757C67.5289 39.8506 67.5702 39.7947 67.6115 39.7116L68.0542 38.7878C68.0725 38.753 68.0818 38.7259 68.0818 38.7027C68.0818 38.641 68.02 38.6062 67.8936 38.5946V38.4438H69.9401L69.9398 38.4437ZM79.6817 46.2091L82.1066 41.6538C82.21 41.4626 82.2627 41.3138 82.2627 41.2074C82.2627 41.045 82.1135 40.9389 81.8177 40.8905V40.7049H84.9606V40.8905C84.7634 40.9136 84.628 40.96 84.55 41.0315C84.4743 41.103 84.3437 41.3117 84.1554 41.6538L80.9781 47.4325C80.8428 47.6779 80.7764 47.8383 80.7764 47.9137C80.7764 48.1071 80.9185 48.2192 81.2008 48.2538V48.4394H78.0418V48.2538C78.3238 48.2192 78.4662 48.1052 78.4662 47.908C78.4662 47.8364 78.3996 47.6779 78.2644 47.4324L75.0848 41.6537C74.8966 41.3115 74.7658 41.1029 74.6903 41.0313C74.6145 40.9598 74.4769 40.9134 74.2797 40.8904V40.7048H77.5442V40.8904C77.2484 40.9387 77.1015 41.045 77.1015 41.2073C77.1015 41.3136 77.1519 41.4624 77.2552 41.6537L79.6823 46.2089L79.6817 46.2091ZM89.0866 45.0417V47.1638H94.9757C95.1108 47.1638 95.2142 47.1367 95.2854 47.0845C95.3565 47.0323 95.4161 46.9395 95.4597 46.8044H95.6801V48.7989H95.4597C95.4161 48.6637 95.3565 48.5709 95.2854 48.5187C95.2142 48.4665 95.111 48.4394 94.9757 48.4394H86.6503V48.2538C86.8108 48.2153 86.921 48.1668 86.9828 48.1069C87.0447 48.047 87.0769 47.958 87.0769 47.8401V41.3039C87.0769 41.186 87.0447 41.0972 86.9828 41.0373C86.921 40.9774 86.8108 40.9271 86.6503 40.8904V40.7048H94.8105C94.9456 40.7048 95.049 40.6777 95.1201 40.6253C95.1913 40.5714 95.2509 40.4784 95.2945 40.3452H95.5149V42.3398H95.2945C95.2509 42.2064 95.1913 42.1138 95.1201 42.0597C95.049 42.0075 94.9458 41.9804 94.8126 41.9804H89.0866V43.8125H92.803C92.936 43.8125 93.0394 43.7854 93.1106 43.7332C93.1816 43.681 93.2413 43.5882 93.2849 43.4531H93.5051V45.4013H93.2849C93.2413 45.2699 93.1816 45.1771 93.1106 45.1229C93.0394 45.0688 92.9362 45.0417 92.803 45.0417H89.0866ZM98.4409 47.8403V41.2983C98.4409 41.1842 98.4087 41.0972 98.3469 41.0375C98.285 40.9775 98.1748 40.9273 98.0141 40.8905V40.7049H100.877V40.8905C100.717 40.9252 100.607 40.9716 100.545 41.0354C100.483 41.0972 100.45 41.1842 100.45 41.2983V47.8403C100.45 47.9582 100.483 48.0471 100.547 48.109C100.611 48.1728 100.721 48.2192 100.877 48.2538V48.4394H98.0141V48.2538C98.1748 48.2153 98.285 48.1668 98.3469 48.1069C98.4087 48.047 98.4409 47.958 98.4409 47.8401V47.8403ZM111.966 41.3544L110.872 43.1731L110.683 43.0822C110.688 43.0455 110.69 43.0146 110.69 42.9914C110.69 42.8639 110.559 42.7246 110.3 42.5778C109.502 42.1101 108.566 41.8762 107.49 41.8762C107.015 41.8762 106.595 41.9247 106.231 42.0231C105.967 42.1003 105.753 42.2126 105.588 42.3651C105.425 42.5159 105.343 42.6803 105.343 42.858C105.343 43.1497 105.552 43.3488 105.967 43.4532C106.183 43.5074 106.644 43.5634 107.352 43.6253L108.408 43.7162C109.034 43.7722 109.543 43.8494 109.931 43.948C110.319 44.0466 110.661 44.1839 110.961 44.3615C111.266 44.5471 111.507 44.7906 111.684 45.0922C111.86 45.3957 111.95 45.7184 111.95 46.0623C111.95 46.6054 111.741 47.0907 111.326 47.5137C110.949 47.8983 110.365 48.1844 109.571 48.3679C108.979 48.509 108.346 48.5786 107.669 48.5786C106.456 48.5786 105.258 48.3331 104.074 47.8442C103.824 47.7457 103.675 47.6972 103.625 47.6972C103.567 47.6972 103.475 47.7398 103.349 47.821L103.154 47.7378L104.15 45.8418L104.345 45.921C104.345 45.9541 104.345 45.979 104.345 45.9945C104.345 46.1646 104.441 46.3212 104.632 46.4641C104.923 46.6824 105.375 46.8719 105.983 47.0302C106.593 47.1888 107.171 47.268 107.717 47.268C108.314 47.268 108.823 47.183 109.243 47.0128C109.477 46.9181 109.663 46.7924 109.801 46.6358C109.94 46.4794 110.009 46.3151 110.009 46.1449C110.009 45.888 109.846 45.7043 109.518 45.5943C109.289 45.5187 108.828 45.4493 108.133 45.3855L107.096 45.2946C106.403 45.2328 105.91 45.1748 105.623 45.1206C105.336 45.0665 105.049 44.9776 104.763 44.8558C104.354 44.6856 104.033 44.4308 103.801 44.0904C103.59 43.7831 103.485 43.4314 103.485 43.0351C103.485 42.3799 103.751 41.8387 104.286 41.4117C104.985 40.8473 106.036 40.565 107.438 40.565C108.023 40.565 108.571 40.6153 109.076 40.7158C109.583 40.8164 110.214 41 110.973 41.2688C111.232 41.3558 111.39 41.3981 111.45 41.3981C111.544 41.3981 111.652 41.3558 111.778 41.2688L111.966 41.3537L111.966 41.3544Z" fill="#222222"/>
<path d="M47.2781 23.0638V30.0223C47.2781 30.3322 47.3463 30.5684 47.4825 30.7366C47.6187 30.9099 47.8523 31.0359 48.1831 31.1303V31.6344H42.1105V31.1303C42.4511 31.0254 42.6846 30.8939 42.816 30.7311C42.9475 30.5684 43.0157 30.3322 43.0157 30.0223V12.2457C43.0157 11.9254 42.9475 11.6838 42.816 11.521C42.6847 11.3583 42.4511 11.2215 42.1105 11.1219V10.6178H54.2946C55.7787 10.6178 56.9563 10.7124 57.8272 10.896C58.6982 11.0799 59.4573 11.4055 60.1044 11.8676C60.8539 12.4033 61.4135 13.1279 61.788 14.0419C62.1385 14.9242 62.3135 15.8692 62.3135 16.8777C62.3135 20.3121 60.5473 22.3182 57.0194 22.9065L60.8003 28.6885C61.462 29.7019 61.9486 30.3531 62.2599 30.6473C62.5713 30.9361 62.9461 31.099 63.3937 31.1305V31.6345H56.3528V31.1305C56.8345 31.0464 57.0777 30.8626 57.0777 30.5791C57.0777 30.3953 56.854 29.949 56.4062 29.24L52.4406 23.0641H47.2779L47.2781 23.0638ZM47.2781 19.5979H53.8421C54.8103 19.5979 55.4965 19.5664 55.8954 19.5033C56.2944 19.4457 56.6644 19.3142 56.9951 19.12C57.7201 18.6998 58.0801 17.9384 58.0801 16.8408C58.0801 15.7432 57.7201 14.9818 56.9951 14.5616C56.6545 14.3568 56.2895 14.2255 55.9051 14.1679C55.5207 14.1101 54.8298 14.0837 53.8421 14.0837H47.2781V19.5979Z" fill="#222222"/>
<path d="M42.8499 47.4202V36.6121C42.8499 36.4237 42.7956 36.2801 42.691 36.181C42.5865 36.082 42.4002 35.9989 42.129 35.9384V35.6317H46.967V35.9384C46.6956 35.9957 46.5095 36.0725 46.4049 36.1778C46.3004 36.2801 46.2461 36.4237 46.2461 36.6121V47.4202C46.2461 47.615 46.3004 47.7621 46.4088 47.8642C46.5172 47.9695 46.7035 48.0463 46.967 48.1037V48.4103H42.129V48.1037C42.4003 48.0398 42.5865 47.9601 42.691 47.861C42.7956 47.7621 42.8499 47.6151 42.8499 47.4204V47.4202Z" fill="#222222"/>
<path d="M90.5479 14.5827H90.2542C90.2368 14.4982 90.2064 14.424 90.163 14.36C90.1204 14.2961 90.0683 14.2424 90.0067 14.199C89.9459 14.1547 89.8784 14.1216 89.8042 14.0995C89.73 14.0774 89.6526 14.0663 89.5721 14.0663C89.4252 14.0663 89.2922 14.1034 89.173 14.1776C89.0546 14.2519 88.9602 14.3612 88.8899 14.5057C88.8205 14.6502 88.7857 14.8274 88.7857 15.0374C88.7857 15.2474 88.8205 15.4247 88.8899 15.5691C88.9602 15.7136 89.0546 15.823 89.173 15.8972C89.2922 15.9714 89.4252 16.0085 89.5721 16.0085C89.6526 16.0085 89.73 15.9975 89.8042 15.9753C89.8784 15.9532 89.9459 15.9205 90.0067 15.8771C90.0683 15.8328 90.1204 15.7788 90.163 15.7148C90.2064 15.6501 90.2368 15.5759 90.2542 15.4922H90.5479C90.5258 15.6161 90.4855 15.727 90.4271 15.8249C90.3687 15.9228 90.296 16.0061 90.2092 16.0748C90.1224 16.1427 90.0249 16.1944 89.9167 16.23C89.8093 16.2655 89.6944 16.2833 89.5721 16.2833C89.3652 16.2833 89.1813 16.2327 89.0202 16.1317C88.8592 16.0306 88.7324 15.8869 88.6401 15.7006C88.5477 15.5143 88.5015 15.2932 88.5015 15.0374C88.5015 14.7816 88.5477 14.5606 88.6401 14.3742C88.7324 14.1879 88.8592 14.0442 89.0202 13.9432C89.1813 13.8421 89.3652 13.7916 89.5721 13.7916C89.6944 13.7916 89.8093 13.8093 89.9167 13.8449C90.0249 13.8804 90.1224 13.9325 90.2092 14.0012C90.296 14.0691 90.3687 14.152 90.4271 14.2499C90.4855 14.347 90.5258 14.4579 90.5479 14.5827ZM91.9509 13.8247H92.2446V15.5585C92.2446 15.7132 92.2162 15.8447 92.1594 15.9528C92.1025 16.061 92.0224 16.1431 91.919 16.1992C91.8155 16.2552 91.6936 16.2833 91.553 16.2833C91.4204 16.2833 91.3024 16.2592 91.1989 16.211C91.0955 16.1621 91.0142 16.0926 90.955 16.0026C90.8958 15.9126 90.8662 15.8056 90.8662 15.6816H91.1551C91.1551 15.7503 91.1721 15.8103 91.2061 15.8617C91.2408 15.9122 91.2882 15.9517 91.3482 15.9801C91.4082 16.0085 91.4765 16.0227 91.553 16.0227C91.6375 16.0227 91.7094 16.005 91.7686 15.9694C91.8278 15.9339 91.8728 15.8818 91.9036 15.8131C91.9352 15.7436 91.9509 15.6588 91.9509 15.5585V13.8247ZM93.8375 14.9071V15.1677H92.7764V14.9071H93.8375ZM95.1014 16.2833C94.9387 16.2833 94.795 16.2544 94.6703 16.1968C94.5463 16.1384 94.4496 16.0582 94.3802 15.9564C94.3107 15.8538 94.2763 15.7369 94.2771 15.6059C94.2763 15.5032 94.2965 15.4085 94.3375 15.3216C94.3786 15.234 94.4346 15.161 94.5057 15.1025C94.5775 15.0433 94.6577 15.0058 94.7461 14.99V14.9758C94.63 14.9458 94.5377 14.8807 94.469 14.7804C94.4003 14.6794 94.3663 14.5645 94.3671 14.4358C94.3663 14.3126 94.3975 14.2025 94.4607 14.1054C94.5238 14.0083 94.6107 13.9317 94.7212 13.8757C94.8325 13.8196 94.9593 13.7916 95.1014 13.7916C95.2419 13.7916 95.3674 13.8196 95.478 13.8757C95.5885 13.9317 95.6753 14.0083 95.7385 14.1054C95.8024 14.2025 95.8348 14.3126 95.8356 14.4358C95.8348 14.5645 95.7997 14.6794 95.7302 14.7804C95.6615 14.8807 95.5703 14.9458 95.4566 14.9758V14.99C95.5443 15.0058 95.6232 15.0433 95.6935 15.1025C95.7638 15.161 95.8198 15.234 95.8617 15.3216C95.9035 15.4085 95.9248 15.5032 95.9256 15.6059C95.9248 15.7369 95.8893 15.8538 95.819 15.9564C95.7495 16.0582 95.6528 16.1384 95.5289 16.1968C95.4057 16.2544 95.2632 16.2833 95.1014 16.2833ZM95.1014 16.0227C95.2111 16.0227 95.3058 16.005 95.3856 15.9694C95.4653 15.9339 95.5269 15.8838 95.5703 15.819C95.6138 15.7543 95.6359 15.6785 95.6366 15.5916C95.6359 15.5001 95.6122 15.4191 95.5656 15.3489C95.519 15.2786 95.4555 15.2233 95.3749 15.1831C95.2952 15.1428 95.204 15.1227 95.1014 15.1227C94.9979 15.1227 94.9056 15.1428 94.8242 15.1831C94.7437 15.2233 94.6802 15.2786 94.6336 15.3489C94.5878 15.4191 94.5653 15.5001 94.5661 15.5916C94.5653 15.6785 94.5862 15.7543 94.6288 15.819C94.6723 15.8838 94.7342 15.9339 94.8148 15.9694C94.8953 16.005 94.9908 16.0227 95.1014 16.0227ZM95.1014 14.8716C95.1882 14.8716 95.2652 14.8542 95.3323 14.8195C95.4002 14.7848 95.4535 14.7362 95.4922 14.6738C95.5309 14.6115 95.5506 14.5384 95.5514 14.4548C95.5506 14.3727 95.5313 14.3012 95.4934 14.2404C95.4555 14.1788 95.403 14.1315 95.3358 14.0983C95.2687 14.0643 95.1906 14.0474 95.1014 14.0474C95.0106 14.0474 94.9312 14.0643 94.8633 14.0983C94.7954 14.1315 94.7429 14.1788 94.7058 14.2404C94.6687 14.3012 94.6506 14.3727 94.6513 14.4548C94.6506 14.5384 94.6691 14.6115 94.707 14.6738C94.7457 14.7362 94.799 14.7848 94.8669 14.8195C94.9348 14.8542 95.0129 14.8716 95.1014 14.8716ZM97.1706 16.2833C96.9921 16.2833 96.8401 16.2347 96.7146 16.1376C96.5891 16.0397 96.4932 15.898 96.4268 15.7124C96.3605 15.5261 96.3274 15.3011 96.3274 15.0374C96.3274 14.7753 96.3605 14.5515 96.4268 14.3659C96.494 14.1796 96.5903 14.0375 96.7158 13.9396C96.8421 13.8409 96.9937 13.7916 97.1706 13.7916C97.3474 13.7916 97.4986 13.8409 97.6241 13.9396C97.7504 14.0375 97.8468 14.1796 97.9131 14.3659C97.9802 14.5515 98.0137 14.7753 98.0137 15.0374C98.0137 15.3011 97.9806 15.5261 97.9143 15.7124C97.848 15.898 97.752 16.0397 97.6265 16.1376C97.501 16.2347 97.349 16.2833 97.1706 16.2833ZM97.1706 16.0227C97.3474 16.0227 97.4848 15.9374 97.5827 15.7669C97.6806 15.5964 97.7295 15.3532 97.7295 15.0374C97.7295 14.8274 97.707 14.6486 97.662 14.5009C97.6178 14.3533 97.5539 14.2408 97.4702 14.1634C97.3873 14.0861 97.2874 14.0474 97.1706 14.0474C96.9953 14.0474 96.8583 14.1338 96.7596 14.3067C96.6609 14.4788 96.6116 14.7224 96.6116 15.0374C96.6116 15.2474 96.6337 15.4258 96.6779 15.5727C96.7221 15.7195 96.7857 15.8313 96.8686 15.9078C96.9523 15.9844 97.0529 16.0227 97.1706 16.0227ZM99.3164 13.8247V16.2501H99.0227V14.1326H99.0085L98.4164 14.5258V14.2274L99.0227 13.8247H99.3164ZM100.772 16.2833C100.633 16.2833 100.508 16.2556 100.396 16.2004C100.285 16.1451 100.196 16.0693 100.129 15.973C100.062 15.8767 100.025 15.7669 100.019 15.6438H100.303C100.314 15.7535 100.364 15.8443 100.452 15.9161C100.541 15.9872 100.648 16.0227 100.772 16.0227C100.871 16.0227 100.96 15.9994 101.037 15.9528C101.115 15.9063 101.177 15.8423 101.221 15.761C101.266 15.6789 101.288 15.5861 101.288 15.4827C101.288 15.3769 101.265 15.2826 101.218 15.1997C101.173 15.116 101.109 15.05 101.029 15.0019C100.948 14.9537 100.856 14.9293 100.753 14.9285C100.679 14.9277 100.603 14.9391 100.524 14.9628C100.446 14.9857 100.382 15.0153 100.331 15.0516L100.057 15.0185L100.203 13.8247H101.463V14.0853H100.45L100.364 14.8006H100.379C100.428 14.7611 100.491 14.7283 100.566 14.7023C100.641 14.6762 100.719 14.6632 100.8 14.6632C100.949 14.6632 101.081 14.6987 101.197 14.7698C101.314 14.84 101.405 14.9364 101.472 15.0587C101.539 15.1811 101.572 15.3208 101.572 15.478C101.572 15.6327 101.538 15.7709 101.468 15.8924C101.4 16.0132 101.305 16.1088 101.184 16.179C101.063 16.2485 100.926 16.2833 100.772 16.2833Z" fill="#222222"/>
</g>
<defs>
<clipPath id="clip0_62_2">
<rect width="112" height="59.7339" fill="white"/>
</clipPath>
</defs>
</svg>
